<svg xmlns="http://www.w3.org/2000/svg" viewBox="0 0 383.16 84.48"><defs><style>.cls-1{font-size:42px;}.cls-1,.cls-15,.cls-6{fill:#414042;}.cls-1,.cls-6{font-family:Rubik-Bold, Rubik;font-weight:700;}.cls-2{letter-spacing:0em;}.cls-3{letter-spacing:-0.04em;}.cls-4{letter-spacing:-0.06em;}.cls-5{letter-spacing:-0.01em;}.cls-6{font-size:23px;letter-spacing:-0.02em;}.cls-7{letter-spacing:-0.01em;}.cls-8{letter-spacing:-0.03em;}.cls-9{letter-spacing:-0.03em;}.cls-10{letter-spacing:-0.03em;}.cls-11{letter-spacing:-0.03em;}.cls-12{letter-spacing:-0.04em;}.cls-13{letter-spacing:-0.03em;}.cls-14{letter-spacing:-0.03em;}</style></defs><g id="Layer_2" data-name="Layer 2"><g id="Layer_1-2" data-name="Layer 1"><text class="cls-1" transform="translate(82.96 42.84) scale(1 1.2)">D<tspan class="cls-2" x="30.07" y="0">E</tspan><tspan class="cls-3" x="56.74" y="0">V</tspan><tspan class="cls-4" x="84.34" y="0">-</tspan><tspan class="cls-5" x="101.89" y="0">T</tspan><tspan x="127.89" y="0">OOLS</tspan></text><text class="cls-6" transform="translate(84.12 77.19) scale(1 1.2)">F<tspan class="cls-7" x="13.75" y="0">o</tspan><tspan class="cls-8" x="27.55" y="0">r</tspan><tspan class="cls-9" x="37.28" y="0"> </tspan><tspan class="cls-7" x="41.49" y="0">the D</tspan><tspan class="cls-10" x="100.95" y="0">e</tspan><tspan class="cls-11" x="113.9" y="0">v</tspan><tspan class="cls-7" x="126.94" y="0">s, B</tspan><tspan class="cls-12" x="166.13" y="0">y</tspan><tspan class="cls-13" x="179.03" y="0"> </tspan><tspan class="cls-7" x="183.24" y="0">the D</tspan><tspan class="cls-8" x="242.69" y="0">e</tspan><tspan class="cls-14" x="255.64" y="0">v</tspan><tspan class="cls-7" x="268.68" y="0">s</tspan></text><path class="cls-15" d="M13.76,8.6H34.49c7.53,0,15.07-.06,22.6,0A10.41,10.41,0,0,1,67.46,18.88c0,2.21,0,4.41,0,6.61V64.81a20.69,20.69,0,0,1-.07,2.61A10.43,10.43,0,0,1,62,75.13c-2.68,1.43-5.68,1.17-8.6,1.17H14.8A14,14,0,0,1,11.21,76a10.34,10.34,0,0,1-7-6.26c-.93-2.44-.68-5.19-.68-7.75V21.77c0-3.17,0-6.14,1.94-8.9A10.38,10.38,0,0,1,13.76,8.6c2.25,0,2.26-3.53,0-3.5A14,14,0,0,0,0,18.86c0,2.27,0,4.55,0,6.82V65.41a14,14,0,0,0,8,13.1c3.16,1.43,6.37,1.29,9.72,1.29H31.39q12.68,0,25.35,0a14.06,14.06,0,0,0,13.43-9.16c1-2.79.79-5.84.79-8.76v-41c0-.67,0-1.34,0-2A13.79,13.79,0,0,0,57.21,5.1H13.76A1.75,1.75,0,0,0,13.76,8.6Z"/><path class="cls-15" d="M23.22,42.16l-9.41,7.5a1.76,1.76,0,0,0,0,2.48l8.65,7.54a1.79,1.79,0,0,0,2.47,0,1.75,1.75,0,0,0,0-2.47l-8.65-7.55v2.48l9.42-7.5a1.77,1.77,0,0,0,0-2.48,1.8,1.8,0,0,0-2.48,0Z"/><path class="cls-15" d="M47.11,44.64l9.42,7.5V49.66l-8.65,7.55a1.75,1.75,0,0,0,0,2.47,1.77,1.77,0,0,0,2.47,0L59,52.14a1.75,1.75,0,0,0,0-2.48l-9.41-7.5a1.82,1.82,0,0,0-2.48,0,1.77,1.77,0,0,0,0,2.48Z"/><path class="cls-15" d="M34.24,60.7l5.11-16.29.73-2.33c.68-2.16-2.7-3.08-3.37-.93L31.6,57.43l-.74,2.34c-.67,2.15,2.71,3.07,3.38.93Z"/><path class="cls-15" d="M1.76,27.24H69.21a1.5,1.5,0,0,0,0-3H1.76a1.5,1.5,0,0,0,0,3Z"/><path class="cls-15" d="M10.91,17.25h8.28a1.75,1.75,0,0,0,0-3.5H10.91A1.76,1.76,0,0,0,9.16,15.5a1.79,1.79,0,0,0,1.75,1.75Z"/><path class="cls-15" d="M42.2,15.5a1.5,1.5,0,0,1,0-.22l0,.26a2.08,2.08,0,0,1,.11-.41l-.1.24a1.59,1.59,0,0,1,.22-.35l-.16.2a2.23,2.23,0,0,1,.26-.27l-.2.16a1.62,1.62,0,0,1,.36-.21l-.24.1a1.93,1.93,0,0,1,.41-.12l-.27,0a1.62,1.62,0,0,1,.44,0l-.26,0a2.12,2.12,0,0,1,.41.12l-.24-.1a1.55,1.55,0,0,1,.35.21l-.2-.16a1.72,1.72,0,0,1,.27.27l-.16-.2a2,2,0,0,1,.21.35l-.1-.24a2.12,2.12,0,0,1,.12.41l0-.26a1.62,1.62,0,0,1,0,.44l0-.27a1.93,1.93,0,0,1-.12.41l.1-.24a2.12,2.12,0,0,1-.21.36l.16-.2a2.23,2.23,0,0,1-.27.26l.2-.16a1.59,1.59,0,0,1-.35.22l.24-.11a1.59,1.59,0,0,1-.41.12l.26,0a1.62,1.62,0,0,1-.44,0l.27,0a1.48,1.48,0,0,1-.41-.12l.24.11a1.65,1.65,0,0,1-.36-.22l.2.16a3.19,3.19,0,0,1-.26-.26l.16.2a1.65,1.65,0,0,1-.22-.36l.1.24a1.91,1.91,0,0,1-.11-.41l0,.27a1.8,1.8,0,0,1,0-.22,1,1,0,0,0-1-1,1,1,0,0,0-1,1,2.62,2.62,0,0,0,.44,1.44A2.82,2.82,0,0,0,42,18a2.6,2.6,0,0,0,2.78-.74,2.81,2.81,0,0,0,.64-1.56A2.61,2.61,0,0,0,44,13.18,2.8,2.8,0,0,0,42.24,13a2.47,2.47,0,0,0-1.38.8,2.73,2.73,0,0,0-.66,1.73,1,1,0,0,0,2,0Z"/><path class="cls-15" d="M49.52,15.5c0-.08,0-.15,0-.22l0,.26a2.12,2.12,0,0,1,.12-.41l-.1.24a1.55,1.55,0,0,1,.21-.35l-.16.2a1.72,1.72,0,0,1,.27-.27l-.21.16A1.88,1.88,0,0,1,50,14.9l-.24.1a2.12,2.12,0,0,1,.41-.12l-.26,0a1.62,1.62,0,0,1,.44,0l-.27,0a1.93,1.93,0,0,1,.41.12l-.24-.1a1.62,1.62,0,0,1,.36.21L50.4,15a2.23,2.23,0,0,1,.26.27L50.5,15a1.59,1.59,0,0,1,.22.35l-.11-.24a1.59,1.59,0,0,1,.12.41l0-.26a1.62,1.62,0,0,1,0,.44l0-.27a1.48,1.48,0,0,1-.12.41l.11-.24a1.65,1.65,0,0,1-.22.36l.16-.2a3.19,3.19,0,0,1-.26.26l.2-.16a1.65,1.65,0,0,1-.36.22l.24-.11a1.48,1.48,0,0,1-.41.12l.27,0a1.62,1.62,0,0,1-.44,0l.26,0a1.59,1.59,0,0,1-.41-.12l.24.11a1.93,1.93,0,0,1-.36-.22l.21.16a2.23,2.23,0,0,1-.27-.26l.16.2a1.62,1.62,0,0,1-.21-.36l.1.24a1.93,1.93,0,0,1-.12-.41l0,.27c0-.08,0-.15,0-.22a1,1,0,0,0-1-1,1,1,0,0,0-1,1A2.56,2.56,0,0,0,48,16.94a2.79,2.79,0,0,0,1.31,1,2.6,2.6,0,0,0,2.78-.74,2.81,2.81,0,0,0,.64-1.56,2.51,2.51,0,0,0-.35-1.47,2.54,2.54,0,0,0-1.08-1,2.77,2.77,0,0,0-1.7-.21,2.4,2.4,0,0,0-1.38.8,2.69,2.69,0,0,0-.67,1.73,1,1,0,1,0,2,0Z"/><path class="cls-15" d="M57.87,15.5c0-.08,0-.15,0-.22l0,.26a2.08,2.08,0,0,1,.11-.41l-.1.24a1.59,1.59,0,0,1,.22-.35l-.16.2a2.23,2.23,0,0,1,.26-.27l-.2.16a1.62,1.62,0,0,1,.36-.21l-.24.1a1.93,1.93,0,0,1,.41-.12l-.27,0a1.62,1.62,0,0,1,.44,0l-.26,0a1.85,1.85,0,0,1,.4.12l-.23-.1a1.8,1.8,0,0,1,.35.21l-.2-.16a1.66,1.66,0,0,1,.26.27l-.15-.2a2,2,0,0,1,.21.35l-.1-.24a2.08,2.08,0,0,1,.11.41l0-.26a1.62,1.62,0,0,1,0,.44l0-.27a1.91,1.91,0,0,1-.11.41l.1-.24a2.12,2.12,0,0,1-.21.36l.15-.2a2.13,2.13,0,0,1-.26.26l.2-.16a1.86,1.86,0,0,1-.35.22l.23-.11a1.42,1.42,0,0,1-.4.12l.26,0a1.62,1.62,0,0,1-.44,0l.27,0A1.48,1.48,0,0,1,58.1,16l.24.11a1.65,1.65,0,0,1-.36-.22l.2.16a3.19,3.19,0,0,1-.26-.26l.16.2a1.65,1.65,0,0,1-.22-.36l.1.24a1.91,1.91,0,0,1-.11-.41l0,.27c0-.08,0-.15,0-.22a1,1,0,0,0-2,0,2.62,2.62,0,0,0,.44,1.44,2.84,2.84,0,0,0,1.31,1,2.59,2.59,0,0,0,2.78-.74,2.82,2.82,0,0,0,.65-1.56,2.52,2.52,0,0,0-.36-1.47,2.48,2.48,0,0,0-1.08-1,2.76,2.76,0,0,0-1.7-.21,2.47,2.47,0,0,0-1.38.8,2.68,2.68,0,0,0-.66,1.73,1,1,0,0,0,1,1A1,1,0,0,0,57.87,15.5Z"/></g></g></svg>