<svg xmlns="http://www.w3.org/2000/svg" viewBox="0 0 382.91 84.48"><defs><style>.cls-1{font-size:42px;}.cls-1,.cls-15,.cls-6{fill:#8779d7;}.cls-1,.cls-6{font-family:Rubik-Bold, Rubik;font-weight:700;}.cls-2{letter-spacing:0em;}.cls-3{letter-spacing:-0.04em;}.cls-4{letter-spacing:-0.06em;}.cls-5{letter-spacing:-0.01em;}.cls-6{font-size:23px;letter-spacing:-0.02em;}.cls-7{letter-spacing:-0.01em;}.cls-8{letter-spacing:-0.03em;}.cls-9{letter-spacing:-0.03em;}.cls-10{letter-spacing:-0.03em;}.cls-11{letter-spacing:-0.03em;}.cls-12{letter-spacing:-0.04em;}.cls-13{letter-spacing:-0.03em;}.cls-14{letter-spacing:-0.03em;}</style></defs><g id="Layer_2" data-name="Layer 2"><g id="Layer_1-2" data-name="Layer 1"><text class="cls-1" transform="translate(82.71 42.84) scale(1 1.2)">D<tspan class="cls-2" x="30.07" y="0">E</tspan><tspan class="cls-3" x="56.74" y="0">V</tspan><tspan class="cls-4" x="84.34" y="0">-</tspan><tspan class="cls-5" x="101.89" y="0">T</tspan><tspan x="127.89" y="0">OOLS</tspan></text><text class="cls-6" transform="translate(83.87 77.19) scale(1 1.2)">F<tspan class="cls-7" x="13.75" y="0">o</tspan><tspan class="cls-8" x="27.55" y="0">r</tspan><tspan class="cls-9" x="37.28" y="0"> </tspan><tspan class="cls-7" x="41.49" y="0">the D</tspan><tspan class="cls-10" x="100.95" y="0">e</tspan><tspan class="cls-11" x="113.9" y="0">v</tspan><tspan class="cls-7" x="126.94" y="0">s, B</tspan><tspan class="cls-12" x="166.13" y="0">y</tspan><tspan class="cls-13" x="179.03" y="0"> </tspan><tspan class="cls-7" x="183.24" y="0">the D</tspan><tspan class="cls-8" x="242.69" y="0">e</tspan><tspan class="cls-14" x="255.64" y="0">v</tspan><tspan class="cls-7" x="268.68" y="0">s</tspan></text><path class="cls-15" d="M13.51,8.35H34.24c7.53,0,15.07-.07,22.6,0A10.65,10.65,0,0,1,67.46,18.88c0,2.2,0,4.41,0,6.61V64.81a20.69,20.69,0,0,1-.07,2.61,10.67,10.67,0,0,1-5.57,7.93c-2.73,1.45-5.75,1.2-8.72,1.2H14.55a14.51,14.51,0,0,1-3.66-.33,10.64,10.64,0,0,1-7.2-6.45C2.76,67.31,3,64.55,3,62V21.77c0-3.21,0-6.23,2-9a10.61,10.61,0,0,1,8.53-4.4,1.5,1.5,0,0,0,0-3A13.71,13.71,0,0,0,0,18.86c0,2.27,0,4.55,0,6.81V65.41A13.83,13.83,0,0,0,7.87,78.3c3.11,1.4,6.29,1.25,9.59,1.25H31.14q12.68,0,25.35,0a13.8,13.8,0,0,0,13.18-9c1-2.77.79-5.79.79-8.69v-41c0-.67,0-1.34,0-2A13.53,13.53,0,0,0,57,5.35H13.51A1.5,1.5,0,0,0,13.51,8.35Z"/><path class="cls-15" d="M23.15,42.34l-9.41,7.5a1.5,1.5,0,0,0,0,2.12l8.65,7.55a1.5,1.5,0,1,0,2.12-2.13l-8.65-7.54V52l9.41-7.5a1.5,1.5,0,0,0,0-2.12,1.53,1.53,0,0,0-2.12,0Z"/><path class="cls-15" d="M47,44.46,56.45,52V49.84L47.8,57.38a1.5,1.5,0,0,0,2.12,2.13L58.57,52a1.49,1.49,0,0,0,0-2.12l-9.41-7.5a1.55,1.55,0,0,0-2.12,0,1.51,1.51,0,0,0,0,2.12Z"/><path class="cls-15" d="M33.75,60.63l5.11-16.28L39.59,42c.58-1.84-2.31-2.63-2.89-.8L31.59,57.5l-.73,2.33c-.58,1.85,2.31,2.64,2.89.8Z"/><path class="cls-15" d="M1.51,27.24H69a1.5,1.5,0,0,0,0-3H1.51a1.5,1.5,0,0,0,0,3Z"/><path class="cls-15" d="M10.66,17h8.28a1.5,1.5,0,0,0,0-3H10.66a1.5,1.5,0,0,0,0,3Z"/><path class="cls-15" d="M42.45,15.5a1.5,1.5,0,0,1,0-.22l-.06.4a1.39,1.39,0,0,1,.12-.41l-.15.35a1.41,1.41,0,0,1,.21-.35l-.24.3a1.66,1.66,0,0,1,.27-.26l-.31.23a2.12,2.12,0,0,1,.36-.21l-.36.15a1.91,1.91,0,0,1,.41-.11l-.4.05a1.62,1.62,0,0,1,.44,0l-.4-.05a1.76,1.76,0,0,1,.41.11l-.36-.15a2.12,2.12,0,0,1,.36.21l-.3-.23a1.6,1.6,0,0,1,.26.26l-.23-.3a2.5,2.5,0,0,1,.21.35l-.15-.35a1.76,1.76,0,0,1,.11.41l-.05-.4a1.62,1.62,0,0,1,0,.44l.05-.4a2.08,2.08,0,0,1-.11.41l.15-.36a2.6,2.6,0,0,1-.21.36l.23-.31a1.28,1.28,0,0,1-.26.26l.3-.23a1.31,1.31,0,0,1-.36.21l.36-.15a1.77,1.77,0,0,1-.41.12l.4-.06a1.62,1.62,0,0,1-.44,0l.4.06a1.93,1.93,0,0,1-.41-.12l.36.15a1.31,1.31,0,0,1-.36-.21l.31.23a1.33,1.33,0,0,1-.27-.26l.24.31a1.47,1.47,0,0,1-.21-.36l.15.36a1.59,1.59,0,0,1-.12-.41l.06.4a1.8,1.8,0,0,1,0-.22A1.5,1.5,0,0,0,41,14a1.52,1.52,0,0,0-1.5,1.5A3.08,3.08,0,0,0,40,17.19a3.57,3.57,0,0,0,.84.85,2.79,2.79,0,0,0,.77.39,3.55,3.55,0,0,0,.91.16,3,3,0,0,0,.89-.11,3.07,3.07,0,0,0,1.47-.92,3.2,3.2,0,0,0,.61-1,3.13,3.13,0,0,0,.18-.87,2.85,2.85,0,0,0-.09-.92,3.36,3.36,0,0,0-.33-.81A3.05,3.05,0,0,0,44,12.75a3.3,3.3,0,0,0-1.19-.33,3,3,0,0,0-.9.06,1.81,1.81,0,0,0-.31.09,6,6,0,0,0-.58.26,3.1,3.1,0,0,0-.71.59,3.19,3.19,0,0,0-.81,2.08A1.5,1.5,0,0,0,41,17,1.54,1.54,0,0,0,42,16.56,1.58,1.58,0,0,0,42.45,15.5Z"/><path class="cls-15" d="M49.77,15.5c0-.08,0-.15,0-.22l0,.4a1.76,1.76,0,0,1,.11-.41l-.15.35a2.5,2.5,0,0,1,.21-.35l-.23.3a1.6,1.6,0,0,1,.26-.26l-.3.23a2.5,2.5,0,0,1,.35-.21l-.35.15a1.76,1.76,0,0,1,.41-.11l-.4.05a1.62,1.62,0,0,1,.44,0l-.4-.05a2.08,2.08,0,0,1,.41.11l-.36-.15a2.6,2.6,0,0,1,.36.21l-.31-.23a1.28,1.28,0,0,1,.26.26l-.23-.3a1.41,1.41,0,0,1,.21.35l-.15-.35a1.77,1.77,0,0,1,.12.41l-.06-.4a1.62,1.62,0,0,1,0,.44l.06-.4a2.12,2.12,0,0,1-.12.41l.15-.36a1.47,1.47,0,0,1-.21.36l.23-.31a1.07,1.07,0,0,1-.26.26l.31-.23a1.47,1.47,0,0,1-.36.21l.36-.15a2.12,2.12,0,0,1-.41.12l.4-.06a1.62,1.62,0,0,1-.44,0l.4.06a1.77,1.77,0,0,1-.41-.12l.35.15a1.41,1.41,0,0,1-.35-.21l.3.23a1.28,1.28,0,0,1-.26-.26l.23.31a2.6,2.6,0,0,1-.21-.36l.15.36a2.08,2.08,0,0,1-.11-.41l0,.4c0-.08,0-.15,0-.22a1.5,1.5,0,0,0-3,0,3.08,3.08,0,0,0,.51,1.69,3.57,3.57,0,0,0,.84.85,2.85,2.85,0,0,0,.78.39,3.4,3.4,0,0,0,.9.16,3,3,0,0,0,2.36-1,3.42,3.42,0,0,0,.62-1,3.12,3.12,0,0,0,.17-.87,2.85,2.85,0,0,0-.09-.92,2.71,2.71,0,0,0-.33-.81,3.18,3.18,0,0,0-.54-.67,2.81,2.81,0,0,0-.72-.5,3.25,3.25,0,0,0-1.18-.33,3.08,3.08,0,0,0-.91.06,1.71,1.71,0,0,0-.3.09,6.21,6.21,0,0,0-.59.26,3.1,3.1,0,0,0-.71.59,3.29,3.29,0,0,0-.81,2.08,1.61,1.61,0,0,0,.44,1.06,1.5,1.5,0,0,0,2.56-1.06Z"/><path class="cls-15" d="M58.12,15.5c0-.08,0-.15,0-.22l-.05.4a1.39,1.39,0,0,1,.12-.41l-.16.35a1.86,1.86,0,0,1,.22-.35l-.24.3a1.66,1.66,0,0,1,.27-.26l-.31.23a2.12,2.12,0,0,1,.36-.21l-.36.15a1.91,1.91,0,0,1,.41-.11l-.4.05a1.62,1.62,0,0,1,.44,0l-.4-.05a1.91,1.91,0,0,1,.41.11l-.36-.15a2.12,2.12,0,0,1,.36.21l-.3-.23a2.13,2.13,0,0,1,.26.26l-.23-.3a2.5,2.5,0,0,1,.21.35l-.15-.35a1.76,1.76,0,0,1,.11.41l-.05-.4a1.62,1.62,0,0,1,0,.44l.05-.4a2.08,2.08,0,0,1-.11.41l.15-.36a2.6,2.6,0,0,1-.21.36l.23-.31a1.6,1.6,0,0,1-.26.26l.3-.23a1.31,1.31,0,0,1-.36.21l.36-.15a1.93,1.93,0,0,1-.41.12l.4-.06a1.62,1.62,0,0,1-.44,0l.4.06a1.93,1.93,0,0,1-.41-.12l.36.15a1.31,1.31,0,0,1-.36-.21l.31.23a1.33,1.33,0,0,1-.27-.26l.24.31a1.93,1.93,0,0,1-.22-.36l.16.36a1.59,1.59,0,0,1-.12-.41l.05.4c0-.08,0-.15,0-.22a1.54,1.54,0,0,0-.44-1.06,1.5,1.5,0,0,0-2.56,1.06,3.08,3.08,0,0,0,.51,1.69,3.57,3.57,0,0,0,.84.85,2.79,2.79,0,0,0,.77.39,3.47,3.47,0,0,0,.9.16,3,3,0,0,0,.9-.11,3.07,3.07,0,0,0,1.47-.92,3.61,3.61,0,0,0,.61-1,3,3,0,0,0,.09-1.79,3,3,0,0,0-.34-.81,2.85,2.85,0,0,0-.53-.67,3.2,3.2,0,0,0-.72-.5,3.36,3.36,0,0,0-1.19-.33,3,3,0,0,0-.9.06,1.58,1.58,0,0,0-.31.09,6,6,0,0,0-.58.26,2.9,2.9,0,0,0-.71.59,3.19,3.19,0,0,0-.81,2.08,1.52,1.52,0,0,0,.44,1.06,1.56,1.56,0,0,0,1.06.44,1.54,1.54,0,0,0,1.06-.44A1.63,1.63,0,0,0,58.12,15.5Z"/></g></g></svg>